<?xml version="1.0" encoding="utf-8"?>
<!-- Generator: Adobe Illustrator 23.0.1, SVG Export Plug-In . SVG Version: 6.00 Build 0)  -->
<svg version="1.1" id="Layer_1" xmlns="http://www.w3.org/2000/svg" xmlns:xlink="http://www.w3.org/1999/xlink" x="0px" y="0px"
	 viewBox="0 0 1080 1160" style="enable-background:new 0 0 1080 1160;" xml:space="preserve">
<style type="text/css">
	.st5{fill:#fff;}
</style>
<g>
	<g class="st4">
		<path class="st5" d="M383.4,690c8.5,8.5,18.2,16,28.9,22l172.5-227c-12.7-12.1-27-22-43.8-29.2c-17.6-7.7-36.1-11.6-55.9-11.6
			s-38.5,3.9-55.9,11.6c-17.6,7.7-32.7,17.9-45.7,31.1c-12.9,13.2-23.4,28.1-31.1,45.4c-7.4,17.3-11.3,36.1-11.3,55.6
			c0,19.8,3.9,38.5,11.3,55.9C360.3,661.6,370.4,676.8,383.4,690z"/>
		<polygon class="st5" points="603,515.5 626.6,515.5 626.6,715.8 738.9,715.8 738.9,445.7 656.1,445.7 		"/>
	</g>
</g>
</svg>
